<?xml version="1.0" encoding="utf-8"?>
<!-- Generator: Adobe Illustrator 23.0.3, SVG Export Plug-In . SVG Version: 6.00 Build 0)  -->
<svg version="1.1" id="Layer_1" xmlns="http://www.w3.org/2000/svg" xmlns:xlink="http://www.w3.org/1999/xlink" x="0px" y="0px"
	 viewBox="0 0 39.6 39.6" style="enable-background:new 0 0 39.6 39.6;" xml:space="preserve">
<style type="text/css">
	.st0{opacity:0.2;}
	.st1{fill:#FFFFFF;}
	.st2{opacity:0.4;}
	.st3{fill:#4A5158;}
	.st4{fill:#343C44;}
</style>
<g class="st0">
	<circle cx="19.8" cy="19.8" r="19.3"/>
	<path class="st1" d="M19.8,1c10.4,0,18.8,8.4,18.8,18.8c0,10.4-8.4,18.8-18.8,18.8C9.4,38.6,1,30.2,1,19.8C1,9.4,9.4,1,19.8,1
		 M19.8,0C8.9,0,0,8.9,0,19.8c0,10.9,8.9,19.8,19.8,19.8c10.9,0,19.8-8.9,19.8-19.8C39.6,8.9,30.7,0,19.8,0L19.8,0z"/>
</g>
<path class="st2" d="M37.5,26.1L19.7,8.2L19,8.7l-1-1l-0.4,0.9l0.4,0.4c-0.1,0-0.1,0-0.2,0c-0.2,0-0.4,0-0.5,0.1l-1-1l0.1,1l0.3,0.3
	c-0.3,0.2-0.5,0.4-0.6,0.6l-0.3-0.3l-1-0.1l1,1c0,0.2-0.1,0.4-0.1,0.5c0,0.1,0,0.1,0,0.2l-0.4-0.4l-0.9,0.4l1.1,1.1L14.9,13l1.7,1.7
	v5.1c-1-0.8-2.2-1.2-3.6-1.2c-0.6,0-1.2,0.5-1.2,1.2c0,0.3,0.1,0.5,0.3,0.7c0,0,0,0,0,0l0.2,0.2l4.1,4.1c-0.1,0.1-0.1,0.3-0.1,0.4
	v6.1c0,0.2,0.1,0.4,0.2,0.5l6.6,6.6C29.8,37.2,35.3,32.4,37.5,26.1z"/>
<g>
	<g>
		<path class="st3" d="M19.9,11.1c0,1.2-1,2.2-2.2,2.2c-1.2,0-2.2-1-2.2-2.2s1-2.2,2.2-2.2C19,8.9,19.9,9.9,19.9,11.1z"/>
		<g>
			<rect x="17.5" y="7.7" class="st1" width="0.4" height="0.9"/>
			<polygon class="st1" points="16.3,9 15.9,8.2 16.2,8 16.7,8.8 			"/>
			
				<rect x="14.9" y="9.2" transform="matrix(0.5002 -0.8659 0.8659 0.5002 -0.7432 17.9351)" class="st1" width="0.4" height="0.9"/>
			<rect x="14.3" y="10.9" class="st1" width="0.9" height="0.4"/>
			
				<rect x="14.7" y="12.4" transform="matrix(0.8668 -0.4986 0.4986 0.8668 -4.2703 9.2414)" class="st1" width="0.9" height="0.4"/>
			
				<rect x="20.1" y="12.2" transform="matrix(0.4993 -0.8664 0.8664 0.4993 -0.7325 23.962)" class="st1" width="0.4" height="0.9"/>
			<rect x="20.3" y="10.9" class="st1" width="0.9" height="0.4"/>
			
				<rect x="19.9" y="9.4" transform="matrix(0.8669 -0.4985 0.4985 0.8669 -2.0802 11.4327)" class="st1" width="0.9" height="0.4"/>
			<rect x="18.8" y="8.3" transform="matrix(0.5003 -0.8658 0.8658 0.5003 2.2575 20.9358)" class="st1" width="0.9" height="0.4"/>
		</g>
	</g>
	<g>
		<path class="st1" d="M25.6,14.8c-0.2-0.2-0.5-0.3-0.8-0.3c-0.3,0-0.6,0.1-0.8,0.3c-0.2,0.2-0.3,0.5-0.3,0.8l0,0
			c0-0.3-0.1-0.6-0.3-0.8c-0.2-0.2-0.5-0.3-0.8-0.3c-0.3,0-0.6,0.1-0.8,0.3c-0.2,0.2-0.3,0.5-0.3,0.8v0c0-0.3-0.1-0.6-0.3-0.8
			c-0.2-0.2-0.5-0.3-0.8-0.3c-0.3,0-0.6,0.1-0.8,0.3c-0.2,0.2-0.3,0.5-0.3,0.8v-4.6c0-0.3-0.1-0.6-0.3-0.8c-0.2-0.2-0.5-0.3-0.8-0.3
			s-0.6,0.1-0.8,0.3c-0.2,0.2-0.3,0.5-0.3,0.8v13.5h2.3h2.3h2.3H26v-8.9C26,15.4,25.9,15.1,25.6,14.8z"/>
		<path class="st1" d="M17.8,25.7c-0.6,0-1.2-0.5-1.2-1.2c0-2-1.6-3.6-3.6-3.6c-0.6,0-1.2-0.5-1.2-1.2c0-0.6,0.5-1.2,1.2-1.2
			c3.3,0,5.9,2.7,5.9,5.9C18.9,25.2,18.4,25.7,17.8,25.7z"/>
		<path class="st4" d="M25.6,31.9c0.2,0,0.4-0.1,0.5-0.2c0.1-0.1,0.2-0.3,0.2-0.5v-6.1c0-0.2-0.1-0.4-0.2-0.5
			c-0.1-0.1-0.3-0.2-0.5-0.2h-8.7c-0.2,0-0.4,0.1-0.5,0.2c-0.1,0.1-0.2,0.3-0.2,0.5v6.1c0,0.2,0.1,0.4,0.2,0.5
			c0.1,0.1,0.3,0.2,0.5,0.2H25.6z"/>
		<path class="st1" d="M24.5,25.9c0.3,0,0.5,0.2,0.5,0.5c0,0.3-0.2,0.5-0.5,0.5c-0.3,0-0.5-0.2-0.5-0.5C24,26.1,24.2,25.9,24.5,25.9
			z"/>
	</g>
</g>
</svg>
